<svg width="24" height="24" viewBox="0 0 24 24" fill="none" xmlns="http://www.w3.org/2000/svg">
<mask id="mask0" mask-type="alpha" maskUnits="userSpaceOnUse" x="4" y="2" width="16" height="20">
<path fill-rule="evenodd" clip-rule="evenodd" d="M14 2H6C4.9 2 4.01 2.9 4.01 4L4 20C4 21.1 4.89 22 5.99 22H18C19.1 22 20 21.1 20 20V8L14 2ZM16 18H8V16H16V18ZM16 14H8V12H16V14ZM13 9V3.5L18.5 9H13Z" fill="white"/>
</mask>
<g mask="url(#mask0)">
<rect x="-13" y="-13" width="50" height="50" fill="black"/>
<mask id="mask1" mask-type="alpha" maskUnits="userSpaceOnUse" x="-13" y="-13" width="50" height="50">
<rect x="-13" y="-13" width="50" height="50" fill="white"/>
</mask>
<g mask="url(#mask1)">
</g>
</g>
</svg>
