<svg width="38" height="36" viewBox="0 0 38 36" fill="none" xmlns="http://www.w3.org/2000/svg">
<path d="M37.2 35.6H1.20001C0.800012 35.6 0.400024 35.3 0.400024 34.8C0.400024 34.3 0.700012 34 1.20001 34H37.2C37.6 34 38 34.3 38 34.8C38 35.3 37.6 35.6 37.2 35.6Z" fill="#E6E6E6"/>
<path d="M3.69998 35C3.29998 35 3 34.7 3 34.3V22.9C3 22.5 3.29998 22.2 3.69998 22.2C4.09998 22.2 4.39999 22.5 4.39999 22.9V34.3C4.29999 34.7 4.09998 35 3.69998 35Z" fill="#E6E6E6"/>
<path d="M6.69998 35C6.29998 35 6 34.7 6 34.3V23.7C6 23.3 6.29998 23 6.69998 23C7.09998 23 7.39999 23.3 7.39999 23.7V34.3C7.39999 34.7 7.09998 35 6.69998 35Z" fill="#E6E6E6"/>
<path d="M9.79999 35.1C9.39999 35.1 9 34.8 9 34.3V14.3C9 13.9 9.29999 13.5 9.79999 13.5C10.3 13.5 10.6 13.8 10.6 14.3V34.3C10.6 34.7 10.2 35.1 9.79999 35.1Z" fill="#E6E6E6"/>
<path d="M24.9 24.6H14.3C13.9 24.6 13.5 24.3 13.5 23.8C13.5 23.3 13.8 23 14.3 23H24.9C25.3 23 25.7 23.3 25.7 23.8C25.7 24.3 25.3 24.6 24.9 24.6Z" fill="#E6E6E6"/>
<path d="M2.40009 22.2C2.00009 22.2 1.6001 21.9 1.6001 21.4V12.7C1.6001 10.6 3.30008 9 5.30008 9H21.9001C22.3001 9 22.7001 9.3 22.7001 9.8C22.7001 10.3 22.4001 10.6 21.9001 10.6H5.30008C4.10008 10.6 3.1001 11.6 3.1001 12.8V21.5C3.1001 21.8 2.80009 22.2 2.40009 22.2Z" fill="#E6E6E6"/>
<path d="M7.40005 7.7C5.40005 7.7 3.80005 6.10001 3.80005 4.10001C3.80005 2.10001 5.40005 0.5 7.40005 0.5C9.40005 0.5 11.0001 2.10001 11.0001 4.10001C11.0001 6.10001 9.40005 7.7 7.40005 7.7ZM7.40005 2.10001C6.30006 2.10001 5.30005 3 5.30005 4.2C5.30005 5.4 6.20005 6.3 7.40005 6.3C8.60005 6.3 9.50006 5.4 9.50006 4.2C9.50006 3 8.60005 2.10001 7.40005 2.10001Z" fill="#E6E6E6"/>
<path d="M34.8 22.2C34.4 22.2 34.0001 21.9 34.0001 21.4V4.3C34.0001 3.1 33 2.10001 31.8 2.10001H13.1001C12.7001 2.10001 12.3 1.8 12.3 1.3C12.3 0.800003 12.6001 0.5 13.1001 0.5H31.9001C34.0001 0.5 35.6001 2.2 35.6001 4.2V21.3C35.6001 21.8 35.2 22.2 34.8 22.2Z" fill="#E6E6E6"/>
<path d="M26.2001 18.8H17.9001C17.5001 18.8 17.1001 18.5 17.1001 18C17.1001 17.5 17.4001 17.2 17.9001 17.2H26.2001C26.6001 17.2 27.0001 17.5 27.0001 18C27.0001 18.5 26.6001 18.8 26.2001 18.8Z" fill="#E6E6E6"/>
<path d="M30.9001 18.8H30.4001C30.0001 18.8 29.6001 18.5 29.6001 18C29.6001 17.5 29.9001 17.2 30.4001 17.2H30.9001C31.3001 17.2 31.7001 17.5 31.7001 18C31.7001 18.5 31.3001 18.8 30.9001 18.8Z" fill="#E6E6E6"/>
<path d="M30.6 10.5H29C28.6 10.5 28.2 10.2 28.2 9.70001C28.2 9.20001 28.5 8.90002 29 8.90002H30.6C31 8.90002 31.4 9.20001 31.4 9.70001C31.4 10.2 31 10.5 30.6 10.5Z" fill="#E6E6E6"/>
<path d="M30.7 14.8H20.7C20.3 14.8 19.9 14.5 19.9 14C19.9 13.5 20.2 13.2 20.7 13.2H30.7C31.1 13.2 31.5 13.5 31.5 14C31.5 14.5 31.1 14.8 30.7 14.8Z" fill="#E6E6E6"/>
<path d="M36.8 25.1H29.5C29.1 25.1 28.7 24.8 28.7 24.3V23.7C28.7 23.1 28.2 22.6 27.6 22.6H25.2C24.8 22.6 24.4 22.3 24.4 21.8C24.4 21.3 24.7 21 25.2 21H27.6C29 21 30.2 22.1 30.2 23.5H36.8C37.2 23.5 37.6 23.8 37.6 24.3C37.6 24.8 37.2 25.1 36.8 25.1Z" fill="#E6E6E6"/>
</svg>
