<svg width="38" height="34" viewBox="0 0 38 34" fill="none" xmlns="http://www.w3.org/2000/svg">
<path d="M34.8 0H2.5C1.1 0 0 1.1 0 2.5V24.6C0 26 1.1 27.1 2.5 27.1H14V28.5H11.4C10 28.5 8.9 29.6 8.9 31V33.2H27.9V31C27.9 29.6 26.8 28.5 25.4 28.5H22.8V27.1H34.7C36.1 27.1 37.2 26 37.2 24.6V2.5C37.3 1.1 36.2 0 34.8 0ZM25.5 30C26 30 26.5 30.4 26.5 31V31.7H10.5V31C10.5 30.5 10.9 30 11.5 30H14.1H23H25.5ZM21.4 28.5H15.5V27.1H21.4V28.5ZM35.8 24.6C35.8 25.2 35.3 25.6 34.8 25.6H22.9H14H2.5C1.9 25.6 1.5 25.1 1.5 24.6V2.5C1.5 1.9 2 1.5 2.5 1.5H34.8C35.4 1.5 35.8 2 35.8 2.5V24.6Z" fill="white"/>
<path d="M33.2 2.90002H3.90005C3.30005 2.90002 2.80005 3.40002 2.80005 4.00002V23.4C2.80005 24 3.30005 24.5 3.90005 24.5H33.2C33.8 24.5 34.3 24 34.3 23.4V4.00002C34.3 3.40002 33.8 2.90002 33.2 2.90002ZM32.8 23H4.30005V4.40002H32.8V23Z" fill="white"/>
<path d="M15.2 18.6999L23.5 14.0999C23.9 13.8999 23.9 13.2999 23.5 13.0999L15.2 8.49994C14.8 8.29994 14.3 8.59994 14.3 8.99994V18.1999C14.4 18.5999 14.8 18.8999 15.2 18.6999Z" fill="white"/>
</svg>
