<svg width="48" height="48" viewBox="0 0 48 48" fill="none" xmlns="http://www.w3.org/2000/svg">
<circle cx="24" cy="24" r="24" fill="#FFF9F9"/>
<path d="M16.0004 15.2002C15.1164 15.2002 14.4004 15.9162 14.4004 16.8002V28.0002C14.4004 28.8842 15.1164 29.6002 16.0004 29.6002H32.0004C32.8844 29.6002 33.6004 28.8842 33.6004 28.0002V16.8002C33.6004 15.9162 32.8844 15.2002 32.0004 15.2002H16.0004ZM16.0004 16.8002H32.0004V26.4002H16.0004V16.8002ZM24.0004 27.2002C24.442 27.2002 24.8004 27.5586 24.8004 28.0002C24.8004 28.4418 24.442 28.8002 24.0004 28.8002C23.5588 28.8002 23.2004 28.4418 23.2004 28.0002C23.2004 27.5586 23.5588 27.2002 24.0004 27.2002ZM20.0004 31.2002C19.8944 31.1987 19.7891 31.2183 19.6908 31.2578C19.5924 31.2973 19.5028 31.356 19.4273 31.4305C19.3519 31.5049 19.2919 31.5936 19.251 31.6914C19.2101 31.7892 19.189 31.8942 19.189 32.0002C19.189 32.1062 19.2101 32.2112 19.251 32.309C19.2919 32.4068 19.3519 32.4955 19.4273 32.5699C19.5028 32.6444 19.5924 32.703 19.6908 32.7426C19.7891 32.7821 19.8944 32.8017 20.0004 32.8002H28.0004C28.1064 32.8017 28.2116 32.7821 28.31 32.7426C28.4084 32.703 28.4979 32.6444 28.5734 32.5699C28.6489 32.4955 28.7089 32.4068 28.7498 32.309C28.7907 32.2112 28.8118 32.1062 28.8118 32.0002C28.8118 31.8942 28.7907 31.7892 28.7498 31.6914C28.7089 31.5936 28.6489 31.5049 28.5734 31.4305C28.4979 31.356 28.4084 31.2973 28.31 31.2578C28.2116 31.2183 28.1064 31.1987 28.0004 31.2002H20.0004Z" fill="#E12828"/>
</svg>
