<svg width="48" height="48" viewBox="0 0 48 48" fill="none" xmlns="http://www.w3.org/2000/svg">
<circle cx="24" cy="24" r="24" fill="#FFF9F9"/>
<path d="M16.0004 15.2002C15.1164 15.2002 14.4004 15.9162 14.4004 16.8002V28.0002C14.4004 28.8842 15.1164 29.6002 16.0004 29.6002H17.5848C18.3792 29.0298 19.3099 28.7447 19.9707 28.5439C20.2211 28.4679 20.5516 28.3673 20.8004 28.2705V27.9924C20.3612 27.4692 20.1108 27.0362 19.966 26.6986C19.8796 26.6098 19.8014 26.5058 19.7238 26.4002H16.0004V16.8002H32.0004V26.4002H28.2238C28.1742 26.4666 28.1282 26.5379 28.077 26.5971C27.9402 26.9483 27.6868 27.4148 27.202 27.9924V28.2705C27.4508 28.3673 27.7797 28.4687 28.0301 28.5439C28.6909 28.7439 29.6208 29.0298 30.416 29.6002H32.0004C32.8844 29.6002 33.6004 28.8842 33.6004 28.0002V16.8002C33.6004 15.9162 32.8844 15.2002 32.0004 15.2002H16.0004ZM24.0004 19.2018C22.062 19.2018 20.4895 20.3684 20.4895 22.458C20.4895 23.3412 20.9863 24.0299 20.9863 24.0299C20.9863 24.0299 20.7598 24.1415 20.7598 24.6127C20.7598 25.5295 21.3488 25.7486 21.3488 25.7486C21.412 26.3054 22.0876 27.0567 22.4004 27.3783V29.0643C21.4164 30.4611 17.6004 29.8042 17.6004 32.8002H30.4004C30.4004 29.8042 26.5844 30.4611 25.6004 29.0643V27.3783C25.9132 27.0567 26.5888 26.3046 26.652 25.7486C26.652 25.7486 27.241 25.3415 27.241 24.6127C27.241 24.1071 27.0145 24.0299 27.0145 24.0299C27.0145 24.0299 27.4207 23.2612 27.4207 22.5268C27.4207 21.0548 26.6818 19.9221 25.441 19.9221C25.441 19.9221 24.9132 19.2018 24.0004 19.2018Z" fill="#E12828"/>
</svg>
