<svg width="48" height="48" viewBox="0 0 48 48" fill="none" xmlns="http://www.w3.org/2000/svg">
<circle cx="24" cy="24" r="24" fill="#FFF9F9"/>
<g clip-path="url(#clip0)">
<path d="M19.2002 14.3999C17.0006 14.3999 15.2002 16.2003 15.2002 18.3999V19.1999C15.2002 19.4121 15.2845 19.6155 15.4345 19.7656C15.5846 19.9156 15.788 19.9999 16.0002 19.9999H24.8002C25.0124 19.9999 25.2158 19.9156 25.3659 19.7656C25.5159 19.6155 25.6002 19.4121 25.6002 19.1999V18.3999C25.6002 17.0651 26.6654 15.9999 28.0002 15.9999C29.335 15.9999 30.4002 17.0651 30.4002 18.3999V29.5999H29.6002C29.6002 30.1615 29.4981 30.6991 29.3205 31.1999H31.0658C31.1815 31.2196 31.3002 31.2136 31.4133 31.1824C31.5265 31.1511 31.6314 31.0953 31.7205 31.0189C31.8097 30.9426 31.881 30.8476 31.9293 30.7406C31.9777 30.6336 32.0018 30.5173 32.0002 30.3999V18.3999C32.0002 16.2003 30.1998 14.3999 28.0002 14.3999H19.2002ZM17.6002 21.5999V30.3999C17.6002 30.8415 17.9586 31.1999 18.4002 31.1999H20.2799C20.1023 30.6991 20.0002 30.1615 20.0002 29.5999H19.2002V21.5999H17.6002ZM22.4002 23.1999C22.2942 23.1984 22.1889 23.218 22.0906 23.2575C21.9922 23.297 21.9026 23.3557 21.8272 23.4302C21.7517 23.5046 21.6917 23.5933 21.6508 23.6911C21.6099 23.7889 21.5888 23.8939 21.5888 23.9999C21.5888 24.1059 21.6099 24.2109 21.6508 24.3087C21.6917 24.4065 21.7517 24.4952 21.8272 24.5696C21.9026 24.6441 21.9922 24.7028 22.0906 24.7423C22.1889 24.7818 22.2942 24.8014 22.4002 24.7999H27.2002C27.3062 24.8014 27.4115 24.7818 27.5098 24.7423C27.6082 24.7028 27.6977 24.6441 27.7732 24.5696C27.8487 24.4952 27.9087 24.4065 27.9496 24.3087C27.9905 24.2109 28.0116 24.1059 28.0116 23.9999C28.0116 23.8939 27.9905 23.7889 27.9496 23.6911C27.9087 23.5933 27.8487 23.5046 27.7732 23.4302C27.6977 23.3557 27.6082 23.297 27.5098 23.2575C27.4115 23.218 27.3062 23.1984 27.2002 23.1999H22.4002ZM24.8002 26.3999C23.0424 26.3999 21.6002 27.8421 21.6002 29.5999C21.6002 30.4 21.9088 31.1259 22.4002 31.689V35.9999L24.8002 34.3999L27.2002 35.9999V31.689C27.6916 31.1259 28.0002 30.4 28.0002 29.5999C28.0002 27.8421 26.558 26.3999 24.8002 26.3999ZM24.8002 27.9999C25.6933 27.9999 26.4002 28.7068 26.4002 29.5999C26.4002 30.493 25.6933 31.1999 24.8002 31.1999C23.9071 31.1999 23.2002 30.493 23.2002 29.5999C23.2002 28.7068 23.9071 27.9999 24.8002 27.9999Z" fill="#E12828"/>
</g>
<defs>
<clipPath id="clip0">
<rect width="24" height="24" fill="white" transform="translate(12 12)"/>
</clipPath>
</defs>
</svg>
