<svg width="48" height="48" viewBox="0 0 48 48" fill="none" xmlns="http://www.w3.org/2000/svg">
<circle cx="24" cy="24" r="24" fill="#FFF9F9"/>
<path d="M17.6002 14.3999C16.9637 14.3999 16.3532 14.6528 15.9031 15.1028C15.4531 15.5529 15.2002 16.1634 15.2002 16.7999C15.2002 17.4364 15.4531 18.0469 15.9031 18.497C16.3532 18.947 16.9637 19.1999 17.6002 19.1999C18.2367 19.1999 18.8472 18.947 19.2973 18.497C19.7473 18.0469 20.0002 17.4364 20.0002 16.7999C20.0002 16.1634 19.7473 15.5529 19.2973 15.1028C18.8472 14.6528 18.2367 14.3999 17.6002 14.3999ZM21.6002 15.1999V16.7999H32.0002V25.5999H23.2002H22.4002H21.6002V26.2655C21.5859 26.3519 21.5859 26.4401 21.6002 26.5265V27.1999H22.4002H23.2002H33.6002C33.7062 27.2014 33.8115 27.1818 33.9098 27.1423C34.0082 27.1028 34.0977 27.0441 34.1732 26.9696C34.2487 26.8952 34.3087 26.8065 34.3496 26.7087C34.3905 26.6109 34.4116 26.5059 34.4116 26.3999C34.4116 26.2939 34.3905 26.1889 34.3496 26.0911C34.3087 25.9933 34.2487 25.9046 34.1732 25.8302C34.0977 25.7557 34.0082 25.6971 33.9098 25.6575C33.8115 25.618 33.7062 25.5984 33.6002 25.5999V15.9999C33.6002 15.7877 33.5159 15.5843 33.3659 15.4342C33.2158 15.2842 33.0124 15.1999 32.8002 15.1999H21.6002ZM24.7846 19.1937C24.6313 19.1985 24.4827 19.2474 24.3564 19.3343L22.158 20.7999H21.6002H16.8002C15.9162 20.7999 15.2002 21.5159 15.2002 22.3999V32.7733C15.2002 33.2293 15.5708 33.5999 16.0268 33.5999C16.462 33.5999 16.823 33.2616 16.8518 32.828L17.2018 27.5733C17.2162 27.3637 17.3898 27.1999 17.6002 27.1999C17.8106 27.1999 17.9842 27.363 17.9986 27.5718L18.3486 32.828C18.3774 33.2624 18.7384 33.5999 19.1736 33.5999C19.6296 33.5999 20.0002 33.2293 20.0002 32.7733V23.1999C20.0002 22.7583 20.3586 22.3999 20.8002 22.3999H22.4002C22.5581 22.3999 22.7125 22.3531 22.8439 22.2655L25.2439 20.6655C25.3909 20.5707 25.5027 20.4303 25.5623 20.2658C25.6219 20.1014 25.6259 19.9219 25.5738 19.755C25.5217 19.588 25.4163 19.4427 25.2738 19.3413C25.1312 19.24 24.9594 19.1881 24.7846 19.1937Z" fill="#E12828"/>
</svg>
