<svg width="16" height="20" viewBox="0 0 16 20" fill="none" xmlns="http://www.w3.org/2000/svg">
<path d="M8 0C7.172 0 6.5 0.672 6.5 1.5V2.19922C3.9204 2.87026 2 5.21706 2 8V12.8379L1.2793 15H0V17H6.26953C6.09344 17.3039 6.00048 17.6488 6 18C6 18.5304 6.21071 19.0391 6.58579 19.4142C6.96086 19.7893 7.46957 20 8 20C8.53043 20 9.03914 19.7893 9.41421 19.4142C9.78929 19.0391 10 18.5304 10 18C9.99893 17.6486 9.90529 17.3037 9.72852 17H16V15H14.7207L14 12.8379V8C14 5.21706 12.0796 2.87026 9.5 2.19922V1.5C9.5 0.672 8.828 0 8 0ZM8 4C10.2204 4 12 5.77963 12 8V13.1621L12.6113 15H3.38867L4 13.1621V8C4 5.77963 5.77963 4 8 4Z" fill="white"/>
</svg>
