<svg width="18" height="19" viewBox="0 0 18 19" fill="none" xmlns="http://www.w3.org/2000/svg">
<path d="M9 0C8.73479 2.65169e-05 8.48045 0.105392 8.29292 0.292922C8.10539 0.480453 8.00003 0.734792 8 1V3H1C0.734792 3.00003 0.480453 3.10539 0.292922 3.29292C0.105392 3.48045 2.65169e-05 3.73479 0 4V18C2.65169e-05 18.2652 0.105392 18.5195 0.292922 18.7071C0.480453 18.8946 0.734792 19 1 19H9H17C17.2652 19 17.5195 18.8946 17.7071 18.7071C17.8946 18.5195 18 18.2652 18 18V1C18 0.734792 17.8946 0.480453 17.7071 0.292922C17.5195 0.105392 17.2652 2.65169e-05 17 0H9ZM10 2H16V4H12V6H16V13H12V15H16V17H10V4V2ZM2 5H8V7H4V9H8V13H4V15H8V17H2V5Z" fill="white"/>
</svg>
